<?xml version="1.0" encoding="iso-8859-1"?>
<!-- Uploaded to: SVG Repo, www.svgrepo.com, Generator: SVG Repo Mixer Tools -->
<svg height="800px" width="800px" version="1.1" id="Layer_1" xmlns="http://www.w3.org/2000/svg" xmlns:xlink="http://www.w3.org/1999/xlink" 
	 viewBox="0 0 512 512" xml:space="preserve">
<g>
	<g>
		<path style="fill:#CDCDCD;" d="M341.474,262.453l-12.05-12.906l132.414-123.586l12.05,12.906L341.474,262.453z"/>
		<path style="fill:#CDCDCD;" d="M50.181,386.022l-12.085-12.871l145.655-136.828l12.085,12.871L50.181,386.022z"/>
	</g>
	<path style="fill:#439FDE;" d="M367.816,441.379H144.187c-11.379,0-20.604-9.225-20.604-20.595V91.215
		c0-11.37,9.225-20.595,20.604-20.595h223.629c11.379,0,20.595,9.225,20.595,20.595v329.569
		C388.411,432.155,379.195,441.379,367.816,441.379"/>
	<g>
		<path style="fill:#E6E6E6;" d="M297.196,512h-82.388c-11.379,0-20.604-9.225-20.604-20.595v-50.026H317.79v50.026
			C317.79,502.775,308.574,512,297.196,512"/>
		<path style="fill:#E6E6E6;" d="M317.793,70.621H194.207V20.595C194.207,9.225,203.432,0,214.802,0h82.397
			c11.37,0,20.595,9.225,20.595,20.595V70.621z"/>
	</g>
	<g>
		<path style="fill:#EF705D;" d="M512,114.759c0,14.627-11.855,26.483-26.483,26.483s-26.483-11.855-26.483-26.483
			s11.855-26.483,26.483-26.483S512,100.131,512,114.759"/>
		<path style="fill:#EF705D;" d="M52.966,397.241c0,14.627-11.855,26.483-26.483,26.483S0,411.869,0,397.241
			c0-14.627,11.855-26.483,26.483-26.483S52.966,382.614,52.966,397.241"/>
	</g>
	<g>
		<path style="fill:#2485BB;" d="M123.586,148.8v10.099l4.281,7.715L291.31,70.623h-8.828h-18.176L123.586,148.8z"/>
		<path style="fill:#2485BB;" d="M123.586,220.69l4.467,7.618L383.806,78.38c-3.778-4.696-9.498-7.759-15.987-7.759h-5.694
			L123.586,210.458V220.69z"/>
		<path style="fill:#2485BB;" d="M388.414,123.586l-4.493-7.601L189.714,230.744l8.986,15.201l189.714-112.11V123.586z"/>
		<path style="fill:#2485BB;" d="M388.414,176.552l-4.546-7.565l-132.414,79.448l9.092,15.13l127.868-76.721V176.552z"/>
		<path style="fill:#2485BB;" d="M388.414,229.517v-8.828l-75.299,45.48l9.357,14.972l65.942-41.207V229.517z"/>
		<path style="fill:#2485BB;" d="M128.147,424.823l8.298,15.025c0.212,0.079,0.441,0.124,0.653,0.203L388.41,301.396v-10.09
			l-4.264-7.724L128.147,424.823z"/>
		<path style="fill:#2485BB;" d="M123.586,220.69v9.137l262.55,70.012l2.277-8.527v-9.137l-262.55-70.012L123.586,220.69z"/>
		<path style="fill:#2485BB;" d="M388.414,363.343v-10.24l-4.476-7.609L220.69,441.379h17.655h17.408L388.414,363.343z"/>
		<path style="fill:#2485BB;" d="M123.586,273.655v9.163l196.255,54.51l4.732-17.002l-198.621-55.172L123.586,273.655z"/>
		<path style="fill:#2485BB;" d="M123.586,326.621v9.137l135.433,36.114l4.546-17.055l-137.702-36.723L123.586,326.621z"/>
		<path style="fill:#2485BB;" d="M123.586,370.759v9.304l76.659,25.556l5.579-16.755l-79.448-26.483L123.586,370.759z"/>
	</g>
</g>
</svg>